<svg xmlns="http://www.w3.org/2000/svg" width="880" height="482" viewBox="0 0 880 482" role="img" aria-labelledby="title desc">
<title id="title">The same message under four headers</title>
<desc id="desc">First confirmatory sample, 600 episodes. B's reflection placed after A's card under one of four headers. Share of answers in which A says B's rule is the one it is using now, and the one it was assigned; and share naming B's rule when asked about B. B shared these thoughts: 0.1%, 0%, 95.2%. A stranger shared these thoughts: 0.2%, 0%, 54.2%. Here are some thoughts: 42.6%, 14.6%, 27.5%. Here are your own earlier thoughts: 10.6%, 3.7%, 17.4%.</desc>
<rect width="880" height="482" fill="#EDF0F2"/>
<defs><marker id="arrow" viewBox="0 0 10 10" refX="8" refY="5" markerWidth="6" markerHeight="6" orient="auto-start-reverse"><path d="M 0 0 L 10 5 L 0 10 z" fill="#0B3A5D"/></marker><pattern id="hatch" width="6" height="6" patternUnits="userSpaceOnUse" patternTransform="rotate(45)"><rect width="6" height="6" fill="#EDF0F2"/><line x1="0" y1="0" x2="0" y2="6" stroke="#0B3A5D" stroke-width="2.2"/></pattern></defs>
<style>text{font-family:Newsreader,Georgia,serif;fill:#1C2A34}.muted{fill:#566A78}.eyebrow{font-family:"IBM Plex Mono",Menlo,monospace;letter-spacing:1px}.mono{font-family:"IBM Plex Mono",Menlo,monospace}.italic{font-style:italic}.strong{font-weight:600}.onink{fill:#EDF0F2}</style>
<text x="32.0" y="33.0" font-size="13" class="eyebrow muted" text-anchor="start">FIRST CONFIRMATORY SAMPLE · 600 EPISODES</text>
<text x="32.0" y="72.0" font-size="30" text-anchor="start">The same message under four headers</text>
<rect x="32.0" y="101.0" width="22.0" height="12.0" fill="#0B3A5D"/>
<text x="62.0" y="112.0" font-size="14" class="muted" text-anchor="start">says B's rule is the one it uses now</text>
<rect x="318.0" y="101.0" width="22.0" height="12.0" fill="#EDF0F2" stroke="#0B3A5D" stroke-width="1.4"/>
<text x="348.0" y="112.0" font-size="14" class="muted" text-anchor="start">says it was assigned B's rule</text>
<text x="848.0" y="112.0" font-size="14" class="muted italic" text-anchor="end">names B's rule for B</text>
<line x1="32.0" y1="126.0" x2="848.0" y2="126.0" stroke="#C7D0D6" stroke-width="1"/>
<text x="32.0" y="163.0" font-size="16" class="italic" text-anchor="start">“B shared these thoughts”</text>
<text x="32.0" y="183.0" font-size="14" class="muted" text-anchor="start">source: B</text>
<rect x="336.0" y="150.0" width="0.4" height="14.0" fill="#0B3A5D"/>
<text x="344.4" y="162.0" font-size="14" class="mono" text-anchor="start">0.1%</text>
<rect x="336.0" y="170.0" width="0.0" height="14.0" fill="#EDF0F2" stroke="#0B3A5D" stroke-width="1.4"/>
<line x1="336.0" y1="170.0" x2="336.0" y2="184.0" stroke="#0B3A5D" stroke-width="1.4"/>
<text x="344.0" y="182.0" font-size="14" class="mono muted" text-anchor="start">0%</text>
<text x="848.0" y="173.0" font-size="15" class="mono" text-anchor="end">95.2%</text>
<text x="32.0" y="229.0" font-size="16" class="italic" text-anchor="start">“A stranger shared these thoughts”</text>
<text x="32.0" y="249.0" font-size="14" class="muted" text-anchor="start">source: a stranger</text>
<rect x="336.0" y="216.0" width="0.8" height="14.0" fill="#0B3A5D"/>
<text x="344.8" y="228.0" font-size="14" class="mono" text-anchor="start">0.2%</text>
<rect x="336.0" y="236.0" width="0.0" height="14.0" fill="#EDF0F2" stroke="#0B3A5D" stroke-width="1.4"/>
<line x1="336.0" y1="236.0" x2="336.0" y2="250.0" stroke="#0B3A5D" stroke-width="1.4"/>
<text x="344.0" y="248.0" font-size="14" class="mono muted" text-anchor="start">0%</text>
<text x="848.0" y="239.0" font-size="15" class="mono" text-anchor="end">54.2%</text>
<text x="32.0" y="295.0" font-size="16" class="italic" text-anchor="start">“Here are some thoughts”</text>
<text x="32.0" y="315.0" font-size="14" class="muted" text-anchor="start">no source given</text>
<rect x="336.0" y="282.0" width="161.9" height="14.0" fill="#0B3A5D"/>
<text x="505.9" y="294.0" font-size="14" class="mono" text-anchor="start">42.6%</text>
<rect x="336.0" y="302.0" width="55.5" height="14.0" fill="#EDF0F2" stroke="#0B3A5D" stroke-width="1.4"/>
<text x="399.5" y="314.0" font-size="14" class="mono muted" text-anchor="start">14.6%</text>
<text x="848.0" y="305.0" font-size="15" class="mono" text-anchor="end">27.5%</text>
<text x="32.0" y="361.0" font-size="16" class="italic" text-anchor="start">“Here are your own earlier thoughts”</text>
<text x="32.0" y="381.0" font-size="14" class="muted" text-anchor="start">source: A itself</text>
<rect x="336.0" y="348.0" width="40.3" height="14.0" fill="#0B3A5D"/>
<text x="384.3" y="360.0" font-size="14" class="mono" text-anchor="start">10.6%</text>
<rect x="336.0" y="368.0" width="14.1" height="14.0" fill="#EDF0F2" stroke="#0B3A5D" stroke-width="1.4"/>
<text x="358.1" y="380.0" font-size="14" class="mono muted" text-anchor="start">3.7%</text>
<text x="848.0" y="371.0" font-size="15" class="mono" text-anchor="end">17.4%</text>
<line x1="32.0" y1="266.0" x2="848.0" y2="266.0" stroke="#C7D0D6" stroke-width="1" stroke-dasharray="3 4"/>
<line x1="336.0" y1="142.0" x2="336.0" y2="402.0" stroke="#0B3A5D" stroke-width="1"/>
<line x1="336.0" y1="402.0" x2="336.0" y2="408.0" stroke="#0B3A5D" stroke-width="1"/>
<text x="336.0" y="424.0" font-size="12" class="mono muted" text-anchor="middle">0%</text>
<line x1="526.0" y1="402.0" x2="526.0" y2="408.0" stroke="#0B3A5D" stroke-width="1"/>
<text x="526.0" y="424.0" font-size="12" class="mono muted" text-anchor="middle">50%</text>
<line x1="716.0" y1="402.0" x2="716.0" y2="408.0" stroke="#0B3A5D" stroke-width="1"/>
<text x="716.0" y="424.0" font-size="12" class="mono muted" text-anchor="middle">100%</text>
<text x="32.0" y="466.0" font-size="14" class="muted" text-anchor="start">The header sits above B's reflection, which is placed in A's context after A's own card.</text>
</svg>
